<svg xmlns="http://www.w3.org/2000/svg" viewBox="89 -2 122 126" fill="#0E2F44" role="img" aria-label="DAL SEEN"><path d="M209.98,33.58v-9.05c0-13.55-10.98-24.53-24.53-24.53h-71.69c-13.55,0-24.53,10.98-24.53,24.53v24.89c0,9.76,7.91,17.67,17.67,17.67h84.9c2.63,0,4.76,2.13,4.76,4.76v23.35c0,6.71-5.44,12.14-12.14,12.14h-69.63c-6.71,0-12.14-5.44-12.14-12.14v-7.98c0-3.7-3-6.7-6.7-6.7-3.7,0-6.7,3-6.7,6.7v9.02c0,13.55,10.98,24.53,24.53,24.53h71.69c13.55,0,24.53-10.98,24.53-24.53v-24.89c0-9.76-7.91-17.67-17.67-17.67h-84.91c-2.63,0-4.76-2.13-4.76-4.76v-23.35c0-6.71,5.44-12.14,12.14-12.14h69.63c6.71,0,12.14,5.44,12.14,12.14v8.02c0,3.7,3,6.7,6.7,6.7,3.7,0,6.7-3,6.7-6.7Z"/><path d="M183.15,34.13c0-4.03-3.27-7.29-7.29-7.29h-57.18c-1.44,0-2.61,1.17-2.61,2.61v14.77c0,1.17.95,2.12,2.12,2.12h9.18c1.17,0,2.12-.95,2.12-2.12v-2.15c0-1.01.82-1.83,1.83-1.83h36.23c1.21,0,2.19.98,2.19,2.19v36.24c0,1.01-.82,1.83-1.83,1.83h-41.38c-.76,0-1.48.3-2.01.83l-7.71,7.71c-1.79,1.79-.52,4.86,2.01,4.86h54.84c5.25,0,9.5-4.25,9.5-9.5v-30.75h0v-19.54Z"/></svg>
